Coordinates
version=1
nRows=16
nColumns=36
inDegrees=yes

Units are S.I. units (second, meters, Newtons, ...)
If the header above contains a line with 'inDegrees', this indicates whether rotational values are in degrees (yes) or radians (no).

endheader
time	pelvis_tilt	pelvis_list	pelvis_rotation	pelvis_tx	pelvis_ty	pelvis_tz	hip_flexion_r	hip_adduction_r	hip_rotation_r	knee_angle_r	knee_angle_r_beta	ankle_angle_r	subtalar_angle_r	mtp_angle_r	hip_flexion_l	hip_adduction_l	hip_rotation_l	knee_angle_l	knee_angle_l_beta	ankle_angle_l	subtalar_angle_l	mtp_angle_l	lumbar_extension	lumbar_bending	lumbar_rotation	arm_flex_r	arm_add_r	arm_rot_r	elbow_flex_r	pro_sup_r	arm_flex_l	arm_add_l	arm_rot_l	elbow_flex_l	pro_sup_l
     14.88333330	      3.75495948	     -1.35691994	     -1.95624339	      0.55505442	      0.82018733	      0.67037899	     23.27937037	      1.43610825	     -0.37898379	     51.61426108	      0.90083880	      4.14413883	    -12.16129979	     -7.49999987	      0.32779799	      2.63856694	      7.79066074	     13.97262840	      0.24386837	     12.37471736	     -9.72386077	     -7.49999987	    -13.72918358	      1.32638420	     -0.85858880	      5.44909699	    -11.80158294	     -1.28791274	     17.40930633	     99.27990184	     12.09634253	    -11.29272855	     10.60679690	     21.36890770	     95.52882957
     14.90000000	      4.65733434	     -1.94819126	     -1.87297188	      0.55043629	      0.81923882	      0.67085242	     22.40871602	      2.20890795	      0.10583831	     45.94300735	      0.80185675	      3.53271512	    -12.36345166	     -7.49999987	     -2.27704760	      2.00315379	      7.93255042	     13.06805903	      0.22808066	     13.25986730	     -8.87913218	     -7.49999987	    -14.96908726	      2.08952377	     -1.47896704	      5.05625418	    -11.85333074	     -1.91357458	     16.81819889	     98.08374526	     12.44762130	    -11.71178751	     10.48294601	     22.67467396	     94.63617970
     14.91666670	      4.84189653	     -2.27624474	     -1.93420118	      0.54842006	      0.81696130	      0.67159333	     22.31871665	      2.67421794	      0.84018224	     40.36400742	      0.70448483	      2.64594026	    -12.66556195	     -7.49999987	     -3.89783027	      1.68520260	      8.06558587	     12.36126811	      0.21574483	     14.10920958	     -8.51952291	     -7.49999987	    -15.22769658	      2.54087983	     -1.76731103	      4.42568539	    -11.89103895	     -2.26445646	     16.46979921	     97.06040512	     12.84589844	    -12.05995755	     10.43258724	     23.43624755	     93.81119744
     14.93333330	      5.12405368	     -2.59105320	     -1.99203758	      0.54833134	      0.81545686	      0.67162818	     22.03105939	      3.03688091	      1.61979390	     34.53943996	      0.60282695	      1.87963573	    -13.00013530	     -7.49999987	     -5.66499509	      1.42763401	      8.23830349	     11.69710038	      0.20415291	     15.14605900	     -8.25242680	     -7.49999987	    -15.58240959	      2.98287067	     -2.15111245	      4.03078846	    -11.91912829	     -2.63027359	     16.15567089	     97.07035827	     13.17677851	    -12.52828261	     10.43548375	     24.10943063	     93.94444147
     14.95000000	      5.70203393	     -3.03588190	     -1.94848842	      0.54742769	      0.81546569	      0.67128781	     21.23715201	      3.46353607	      2.42690938	     28.22431903	      0.49260730	      1.26720317	    -13.20116200	     -7.49999987	     -7.93474671	      1.05567331	      8.39411988	     11.03391306	      0.19257811	     16.41777970	     -7.82463333	     -7.49999987	    -16.27224194	      3.64217728	     -2.57929577	      3.83450542	    -12.04300664	     -2.99023895	     15.75729348	     97.45071097	     13.47135752	    -13.03747290	     10.43820283	     24.89596753	     94.24084455
     14.96666670	      6.12548484	     -3.48702093	     -1.83242081	      0.54312273	      0.81554916	      0.67165888	     20.47761013	      3.88159103	      3.62565753	     21.63067599	      0.37752652	      0.68984758	    -13.54247703	     -7.49999987	    -10.05696094	      0.64669611	      8.40768608	     10.54668269	      0.18407434	     17.69360394	     -7.08221607	     -7.49999987	    -16.80997740	      4.36277427	     -3.04600187	      3.77660004	    -12.19125211	     -3.78201423	     15.01195022	     98.62667430	     13.92256506	    -13.38887793	      9.96452607	     25.08464053	     95.04174386
     14.98333330	      6.45886462	     -3.87121985	     -1.54337946	      0.53578509	      0.81467609	      0.67297342	     19.85460096	      4.09021750	      4.98565296	     15.28998562	      0.26686059	      0.29904451	    -13.64273597	     -7.49999987	    -11.96507258	      0.26544892	      8.72406139	     10.17523419	      0.17759134	     18.41074531	     -6.90611232	     -7.49999987	    -17.40459385	      5.09670886	     -3.57931731	      3.82105345	    -12.44384400	     -4.75163022	     14.34349545	     99.94187549	     14.36663388	    -13.92083714	      9.57068302	     25.79605956	     96.52352619
     15.00000000	      6.58190010	     -4.12173183	     -1.35783755	      0.52952997	      0.81284530	      0.67476291	     19.67535646	      4.07823269	      6.48035071	      9.75959646	      0.17033709	     -0.06665498	    -13.62824251	     -7.49999987	    -13.49721650	     -0.02427553	      8.79962052	      9.92212373	      0.17317373	     18.91143345	     -6.79165501	     -7.49999987	    -17.89312147	      5.73299670	     -4.17469821	      4.08148681	    -12.54447421	     -5.70089238	     13.89663466	     99.29088740	     14.72997385	    -14.40894263	      9.18156242	     26.54410492	     96.29643933
     15.01666670	      6.25975555	     -4.06211681	     -1.23177774	      0.52828075	      0.81055613	      0.67542601	     20.45714494	      3.63586515	      7.14847083	      5.94454297	      0.10375185	      0.51633060	    -12.18866739	     -7.49999987	    -14.30172768	      0.01080528	      9.01574104	      9.96410904	      0.17390651	     18.96793326	     -7.19708821	     -7.49999987	    -17.70483848	      6.01844643	     -4.60324804	      4.34614770	    -12.68916152	     -6.12661822	     12.76517012	     98.82792566	     15.19984188	    -14.68858244	      8.53451613	     26.48305601	     95.46781345
     15.03333330	      5.82423927	     -3.98120498	     -1.67289740	      0.53203405	      0.80853544	      0.67585710	     21.62630264	      3.44227720	      8.13376297	      3.65532717	      0.06379749	      0.96079728	    -11.41571501	     -7.49999987	    -15.02306764	      0.08180832	      7.69440182	     10.00760236	      0.17466561	     19.47298009	     -5.87868637	     -7.49999987	    -17.33919743	      6.23729999	     -4.80519562	      4.28296487	    -12.89247685	     -6.25255091	     12.71460799	     99.06890454	     14.75089120	    -15.01558976	      7.54650425	     27.01136018	     95.79043503
     15.05000000	      5.58101572	     -3.74331515	     -1.82647083	      0.53580249	      0.80652420	      0.67675998	     22.72534030	      3.06352190	      8.53978840	      2.74909784	      0.04798081	      1.25871246	    -11.02905229	     -7.49999987	    -15.84059384	      0.34660400	      7.30191085	     10.11618479	      0.17656073	     19.42824544	     -5.81939043	     -7.49999987	    -17.03375905	      6.27729974	     -4.88114241	      3.82806910	    -12.99947465	     -6.32448982	     12.43146795	     99.05123778	     14.50941047	    -15.22210191	      7.44945063	     26.90286111	     95.77409103
     15.06666670	      4.59098737	     -3.26895559	     -2.20375060	      0.53556846	      0.80267169	      0.68055287	     24.96189704	      2.73734044	      8.05137705	      3.52476854	      0.06151882	      1.92181598	     -9.30865711	     -7.49999987	    -15.65398681	      0.82906344	      6.08746810	     10.42008756	      0.18186484	     19.46854454	     -4.67518191	     -7.49999987	    -15.81064772	      5.97135690	     -5.02137375	      3.39751238	    -12.87992850	     -6.58816836	     11.56088424	     98.94464335	     13.85512526	    -15.37436266	      6.91682824	     26.34261080	     95.66330035
     15.08333330	      3.92953654	     -2.76978696	     -2.14811639	      0.53085388	      0.79830842	      0.68534384	     27.03850551	      2.40464872	      6.73483349	      5.74377772	      0.10024783	      2.01808676	     -7.97724896	     -7.49999987	    -15.20006864	      1.28146148	      5.21669270	     11.47331288	      0.20024709	     19.78898453	     -3.87954316	     -7.49999987	    -15.34235557	      5.61729665	     -5.37118878	      3.17781206	    -12.54050112	     -6.75192839	     10.87569771	     98.99266948	     13.59412230	    -15.57891913	      6.29563110	     25.70072139	     95.72682308
     15.10000000	      3.29943617	     -2.19607524	     -2.14780931	      0.52634992	      0.79417046	      0.68866358	     29.28116741	      2.10626582	      5.32701566	      9.52138089	      0.16617945	      1.60590912	     -6.98744094	     -7.49999987	    -14.23598069	      1.84742947	      4.04093447	     13.15915935	      0.22967066	     19.73462404	     -3.34432921	     -7.49999987	    -15.01797622	      5.07611051	     -5.59231144	      3.02158662	    -12.25918451	     -6.78227974	     10.61870217	     99.01337682	     13.64883426	    -15.75294129	      5.86428533	     25.15229151	     95.88133149
     15.11666670	      2.42061389	     -1.44282148	     -2.04904653	      0.52563213	      0.79028873	      0.68945637	     31.85328716	      1.54920129	      3.85984475	     14.42906009	      0.25183461	      0.91081156	     -6.23365678	     -7.49999987	    -12.43165462	      2.59427635	      2.80226885	     15.73956189	      0.27470718	     19.53437144	     -2.98219609	     -7.49999987	    -14.45924144	      4.38492222	     -5.80127602	      2.79065042	    -12.01252684	     -6.67777883	     10.62090292	     98.98884161	     13.64717725	    -15.87623418	      5.58130334	     24.39768466	     96.18430390
     15.13333330	      1.58588787	     -0.58674342	     -1.75468063	      0.52969015	      0.78721754	      0.69056784	     34.10202167	      0.71005280	      2.62161605	     19.45615589	      0.33957398	      0.29231076	     -5.65877600	     -7.49999987	    -10.50696710	      3.38601944	      1.55682028	     18.67732754	      0.32598086	     18.86781203	     -2.58613758	     -7.49999987	    -13.65943069	      3.54732754	     -6.10895796	      2.31307188	    -11.91267112	     -5.06356483	     10.67948407	     97.42823307	     13.66835773	    -15.99479146	      6.22672573	     23.31706187	     95.66884180
